<svg xmlns="http://www.w3.org/2000/svg" width="390" height="844" viewBox="0 0 390 844" fill="none"><rect x="37.5" y="275.5" width="319" height="81" rx="7.5" fill="#003057" />
<rect x="37.5" y="275.5" width="319" height="81" rx="7.5" stroke="white" />
<path d="M70.0199 312.759C72.8838 312.759 75.2054 310.437 75.2054 307.574C75.2054 304.71 72.8838 302.389 70.0199 302.389C67.156 302.389 64.8344 304.71 64.8344 307.574C64.8344 310.437 67.156 312.759 70.0199 312.759Z" stroke="white" stroke-width="2" stroke-linecap="round" stroke-linejoin="round" />
<path d="M61.3416 321.833C59.194 325.294 66.3029 327.018 70.0199 327.018C73.7369 327.018 80.8458 325.294 78.6983 321.833C77.0833 319.23 73.8167 316.648 70.0199 316.648C66.2231 316.648 62.9565 319.23 61.3416 321.833Z" stroke="white" stroke-width="2" stroke-linecap="round" stroke-linejoin="round" />
<path d="M108.982 308.768H104.266L103.51 311H100.288L104.86 298.364H108.424L112.996 311H109.738L108.982 308.768ZM108.19 306.392L106.624 301.766L105.076 306.392H108.19ZM119.985 308.39V311H118.419C117.303 311 116.433 310.73 115.809 310.19C115.185 309.638 114.873 308.744 114.873 307.508V303.512H113.649V300.956H114.873V298.508H117.951V300.956H119.967V303.512H117.951V307.544C117.951 307.844 118.023 308.06 118.167 308.192C118.311 308.324 118.551 308.39 118.887 308.39H119.985ZM127.874 300.848C129.026 300.848 129.95 301.232 130.646 302C131.342 302.756 131.69 303.8 131.69 305.132V311H128.63V305.546C128.63 304.874 128.456 304.352 128.108 303.98C127.76 303.608 127.292 303.422 126.704 303.422C126.116 303.422 125.648 303.608 125.3 303.98C124.952 304.352 124.778 304.874 124.778 305.546V311H121.7V297.68H124.778V302.306C125.09 301.862 125.516 301.508 126.056 301.244C126.596 300.98 127.202 300.848 127.874 300.848ZM136.907 297.68V311H133.829V297.68H136.907ZM148.605 305.816C148.605 306.104 148.587 306.404 148.551 306.716H141.585C141.633 307.34 141.831 307.82 142.179 308.156C142.539 308.48 142.977 308.642 143.493 308.642C144.261 308.642 144.795 308.318 145.095 307.67H148.371C148.203 308.33 147.897 308.924 147.453 309.452C147.021 309.98 146.475 310.394 145.815 310.694C145.155 310.994 144.417 311.144 143.601 311.144C142.617 311.144 141.741 310.934 140.973 310.514C140.205 310.094 139.605 309.494 139.173 308.714C138.741 307.934 138.525 307.022 138.525 305.978C138.525 304.934 138.735 304.022 139.155 303.242C139.587 302.462 140.187 301.862 140.955 301.442C141.723 301.022 142.605 300.812 143.601 300.812C144.573 300.812 145.437 301.016 146.193 301.424C146.949 301.832 147.537 302.414 147.957 303.17C148.389 303.926 148.605 304.808 148.605 305.816ZM145.455 305.006C145.455 304.478 145.275 304.058 144.915 303.746C144.555 303.434 144.105 303.278 143.565 303.278C143.049 303.278 142.611 303.428 142.251 303.728C141.903 304.028 141.687 304.454 141.603 305.006H145.455ZM155.827 308.39V311H154.261C153.145 311 152.275 310.73 151.651 310.19C151.027 309.638 150.715 308.744 150.715 307.508V303.512H149.491V300.956H150.715V298.508H153.793V300.956H155.809V303.512H153.793V307.544C153.793 307.844 153.865 308.06 154.009 308.192C154.153 308.324 154.393 308.39 154.729 308.39H155.827ZM167.01 305.816C167.01 306.104 166.992 306.404 166.956 306.716H159.99C160.038 307.34 160.236 307.82 160.584 308.156C160.944 308.48 161.382 308.642 161.898 308.642C162.666 308.642 163.2 308.318 163.5 307.67H166.776C166.608 308.33 166.302 308.924 165.858 309.452C165.426 309.98 164.88 310.394 164.22 310.694C163.56 310.994 162.822 311.144 162.006 311.144C161.022 311.144 160.146 310.934 159.378 310.514C158.61 310.094 158.01 309.494 157.578 308.714C157.146 307.934 156.93 307.022 156.93 305.978C156.93 304.934 157.14 304.022 157.56 303.242C157.992 302.462 158.592 301.862 159.36 301.442C160.128 301.022 161.01 300.812 162.006 300.812C162.978 300.812 163.842 301.016 164.598 301.424C165.354 301.832 165.942 302.414 166.362 303.17C166.794 303.926 167.01 304.808 167.01 305.816ZM163.86 305.006C163.86 304.478 163.68 304.058 163.32 303.746C162.96 303.434 162.51 303.278 161.97 303.278C161.454 303.278 161.016 303.428 160.656 303.728C160.308 304.028 160.092 304.454 160.008 305.006H163.86Z" fill="white" />
<path d="M107.602 328.098C107.602 328.91 107.322 329.587 106.762 330.128C106.211 330.66 105.367 330.926 104.228 330.926H102.352V335H101.078V325.242H104.228C105.329 325.242 106.165 325.508 106.734 326.04C107.313 326.572 107.602 327.258 107.602 328.098ZM104.228 329.876C104.937 329.876 105.46 329.722 105.796 329.414C106.132 329.106 106.3 328.667 106.3 328.098C106.3 326.894 105.609 326.292 104.228 326.292H102.352V329.876H104.228ZM110.459 324.64V335H109.185V324.64H110.459ZM112.155 331.136C112.155 330.352 112.313 329.666 112.631 329.078C112.948 328.481 113.382 328.019 113.933 327.692C114.493 327.365 115.113 327.202 115.795 327.202C116.467 327.202 117.05 327.347 117.545 327.636C118.039 327.925 118.408 328.289 118.651 328.728V327.328H119.939V335H118.651V333.572C118.399 334.02 118.021 334.393 117.517 334.692C117.022 334.981 116.443 335.126 115.781 335.126C115.099 335.126 114.483 334.958 113.933 334.622C113.382 334.286 112.948 333.815 112.631 333.208C112.313 332.601 112.155 331.911 112.155 331.136ZM118.651 331.15C118.651 330.571 118.534 330.067 118.301 329.638C118.067 329.209 117.75 328.882 117.349 328.658C116.957 328.425 116.523 328.308 116.047 328.308C115.571 328.308 115.137 328.42 114.745 328.644C114.353 328.868 114.04 329.195 113.807 329.624C113.573 330.053 113.457 330.557 113.457 331.136C113.457 331.724 113.573 332.237 113.807 332.676C114.04 333.105 114.353 333.437 114.745 333.67C115.137 333.894 115.571 334.006 116.047 334.006C116.523 334.006 116.957 333.894 117.349 333.67C117.75 333.437 118.067 333.105 118.301 332.676C118.534 332.237 118.651 331.729 118.651 331.15ZM128.7 327.328L124.08 338.612H122.764L124.276 334.916L121.182 327.328H122.596L125.004 333.544L127.384 327.328H128.7ZM131.296 333.236L129.728 337.002H128.874L129.896 333.236H131.296ZM136.012 331.15C136.012 330.357 136.171 329.666 136.488 329.078C136.805 328.481 137.244 328.019 137.804 327.692C138.373 327.365 139.022 327.202 139.75 327.202C140.693 327.202 141.467 327.431 142.074 327.888C142.69 328.345 143.096 328.98 143.292 329.792H141.92C141.789 329.325 141.533 328.957 141.15 328.686C140.777 328.415 140.31 328.28 139.75 328.28C139.022 328.28 138.434 328.532 137.986 329.036C137.538 329.531 137.314 330.235 137.314 331.15C137.314 332.074 137.538 332.788 137.986 333.292C138.434 333.796 139.022 334.048 139.75 334.048C140.31 334.048 140.777 333.917 141.15 333.656C141.523 333.395 141.78 333.021 141.92 332.536H143.292C143.087 333.32 142.676 333.95 142.06 334.426C141.444 334.893 140.674 335.126 139.75 335.126C139.022 335.126 138.373 334.963 137.804 334.636C137.244 334.309 136.805 333.847 136.488 333.25C136.171 332.653 136.012 331.953 136.012 331.15ZM148.338 335.126C147.619 335.126 146.966 334.963 146.378 334.636C145.799 334.309 145.342 333.847 145.006 333.25C144.679 332.643 144.516 331.943 144.516 331.15C144.516 330.366 144.684 329.675 145.02 329.078C145.365 328.471 145.832 328.009 146.42 327.692C147.008 327.365 147.666 327.202 148.394 327.202C149.122 327.202 149.78 327.365 150.368 327.692C150.956 328.009 151.418 328.467 151.754 329.064C152.099 329.661 152.272 330.357 152.272 331.15C152.272 331.943 152.095 332.643 151.74 333.25C151.395 333.847 150.923 334.309 150.326 334.636C149.729 334.963 149.066 335.126 148.338 335.126ZM148.338 334.006C148.795 334.006 149.225 333.899 149.626 333.684C150.027 333.469 150.349 333.147 150.592 332.718C150.844 332.289 150.97 331.766 150.97 331.15C150.97 330.534 150.849 330.011 150.606 329.582C150.363 329.153 150.046 328.835 149.654 328.63C149.262 328.415 148.837 328.308 148.38 328.308C147.913 328.308 147.484 328.415 147.092 328.63C146.709 328.835 146.401 329.153 146.168 329.582C145.935 330.011 145.818 330.534 145.818 331.15C145.818 331.775 145.93 332.303 146.154 332.732C146.387 333.161 146.695 333.483 147.078 333.698C147.461 333.903 147.881 334.006 148.338 334.006ZM157.685 327.188C158.618 327.188 159.374 327.473 159.953 328.042C160.532 328.602 160.821 329.414 160.821 330.478V335H159.561V330.66C159.561 329.895 159.37 329.311 158.987 328.91C158.604 328.499 158.082 328.294 157.419 328.294C156.747 328.294 156.21 328.504 155.809 328.924C155.417 329.344 155.221 329.955 155.221 330.758V335H153.947V327.328H155.221V328.42C155.473 328.028 155.814 327.725 156.243 327.51C156.682 327.295 157.162 327.188 157.685 327.188ZM166.64 327.188C167.574 327.188 168.33 327.473 168.908 328.042C169.487 328.602 169.776 329.414 169.776 330.478V335H168.516V330.66C168.516 329.895 168.325 329.311 167.942 328.91C167.56 328.499 167.037 328.294 166.374 328.294C165.702 328.294 165.166 328.504 164.764 328.924C164.372 329.344 164.176 329.955 164.176 330.758V335H162.902V327.328H164.176V328.42C164.428 328.028 164.769 327.725 165.198 327.51C165.637 327.295 166.118 327.188 166.64 327.188ZM178.857 330.87C178.857 331.113 178.843 331.369 178.815 331.64H172.683C172.73 332.396 172.987 332.989 173.453 333.418C173.929 333.838 174.503 334.048 175.175 334.048C175.726 334.048 176.183 333.922 176.547 333.67C176.921 333.409 177.182 333.063 177.331 332.634H178.703C178.498 333.371 178.087 333.973 177.471 334.44C176.855 334.897 176.09 335.126 175.175 335.126C174.447 335.126 173.794 334.963 173.215 334.636C172.646 334.309 172.198 333.847 171.871 333.25C171.545 332.643 171.381 331.943 171.381 331.15C171.381 330.357 171.54 329.661 171.857 329.064C172.175 328.467 172.618 328.009 173.187 327.692C173.766 327.365 174.429 327.202 175.175 327.202C175.903 327.202 176.547 327.361 177.107 327.678C177.667 327.995 178.097 328.434 178.395 328.994C178.703 329.545 178.857 330.17 178.857 330.87ZM177.541 330.604C177.541 330.119 177.434 329.703 177.219 329.358C177.005 329.003 176.711 328.737 176.337 328.56C175.973 328.373 175.567 328.28 175.119 328.28C174.475 328.28 173.925 328.485 173.467 328.896C173.019 329.307 172.763 329.876 172.697 330.604H177.541ZM180.063 331.15C180.063 330.357 180.222 329.666 180.539 329.078C180.856 328.481 181.295 328.019 181.855 327.692C182.424 327.365 183.073 327.202 183.801 327.202C184.744 327.202 185.518 327.431 186.125 327.888C186.741 328.345 187.147 328.98 187.343 329.792H185.971C185.84 329.325 185.584 328.957 185.201 328.686C184.828 328.415 184.361 328.28 183.801 328.28C183.073 328.28 182.485 328.532 182.037 329.036C181.589 329.531 181.365 330.235 181.365 331.15C181.365 332.074 181.589 332.788 182.037 333.292C182.485 333.796 183.073 334.048 183.801 334.048C184.361 334.048 184.828 333.917 185.201 333.656C185.574 333.395 185.831 333.021 185.971 332.536H187.343C187.138 333.32 186.727 333.95 186.111 334.426C185.495 334.893 184.725 335.126 183.801 335.126C183.073 335.126 182.424 334.963 181.855 334.636C181.295 334.309 180.856 333.847 180.539 333.25C180.222 332.653 180.063 331.953 180.063 331.15ZM190.597 328.378V332.9C190.597 333.273 190.676 333.539 190.835 333.698C190.994 333.847 191.269 333.922 191.661 333.922H192.599V335H191.451C190.742 335 190.21 334.837 189.855 334.51C189.5 334.183 189.323 333.647 189.323 332.9V328.378H188.329V327.328H189.323V325.396H190.597V327.328H192.599V328.378H190.597ZM195.458 333.236L193.89 337.002H193.036L194.058 333.236H195.458ZM200.174 331.136C200.174 330.352 200.333 329.666 200.65 329.078C200.968 328.481 201.402 328.019 201.952 327.692C202.512 327.365 203.133 327.202 203.814 327.202C204.486 327.202 205.07 327.347 205.564 327.636C206.059 327.925 206.428 328.289 206.67 328.728V327.328H207.958V335H206.67V333.572C206.418 334.02 206.04 334.393 205.536 334.692C205.042 334.981 204.463 335.126 203.8 335.126C203.119 335.126 202.503 334.958 201.952 334.622C201.402 334.286 200.968 333.815 200.65 333.208C200.333 332.601 200.174 331.911 200.174 331.136ZM206.67 331.15C206.67 330.571 206.554 330.067 206.32 329.638C206.087 329.209 205.77 328.882 205.368 328.658C204.976 328.425 204.542 328.308 204.066 328.308C203.59 328.308 203.156 328.42 202.764 328.644C202.372 328.868 202.06 329.195 201.826 329.624C201.593 330.053 201.476 330.557 201.476 331.136C201.476 331.724 201.593 332.237 201.826 332.676C202.06 333.105 202.372 333.437 202.764 333.67C203.156 333.894 203.59 334.006 204.066 334.006C204.542 334.006 204.976 333.894 205.368 333.67C205.77 333.437 206.087 333.105 206.32 332.676C206.554 332.237 206.67 331.729 206.67 331.15ZM213.849 327.188C214.783 327.188 215.539 327.473 216.117 328.042C216.696 328.602 216.985 329.414 216.985 330.478V335H215.725V330.66C215.725 329.895 215.534 329.311 215.151 328.91C214.769 328.499 214.246 328.294 213.583 328.294C212.911 328.294 212.375 328.504 211.973 328.924C211.581 329.344 211.385 329.955 211.385 330.758V335H210.111V327.328H211.385V328.42C211.637 328.028 211.978 327.725 212.407 327.51C212.846 327.295 213.327 327.188 213.849 327.188ZM218.59 331.136C218.59 330.352 218.749 329.666 219.066 329.078C219.384 328.481 219.818 328.019 220.368 327.692C220.928 327.365 221.554 327.202 222.244 327.202C222.842 327.202 223.397 327.342 223.91 327.622C224.424 327.893 224.816 328.252 225.086 328.7V324.64H226.374V335H225.086V333.558C224.834 334.015 224.461 334.393 223.966 334.692C223.472 334.981 222.893 335.126 222.23 335.126C221.549 335.126 220.928 334.958 220.368 334.622C219.818 334.286 219.384 333.815 219.066 333.208C218.749 332.601 218.59 331.911 218.59 331.136ZM225.086 331.15C225.086 330.571 224.97 330.067 224.736 329.638C224.503 329.209 224.186 328.882 223.784 328.658C223.392 328.425 222.958 328.308 222.482 328.308C222.006 328.308 221.572 328.42 221.18 328.644C220.788 328.868 220.476 329.195 220.242 329.624C220.009 330.053 219.892 330.557 219.892 331.136C219.892 331.724 220.009 332.237 220.242 332.676C220.476 333.105 220.788 333.437 221.18 333.67C221.572 333.894 222.006 334.006 222.482 334.006C222.958 334.006 223.392 333.894 223.784 333.67C224.186 333.437 224.503 333.105 224.736 332.676C224.97 332.237 225.086 331.729 225.086 331.15ZM233.814 328.378V332.9C233.814 333.273 233.893 333.539 234.052 333.698C234.21 333.847 234.486 333.922 234.878 333.922H235.816V335H234.668C233.958 335 233.426 334.837 233.072 334.51C232.717 334.183 232.54 333.647 232.54 332.9V328.378H231.546V327.328H232.54V325.396H233.814V327.328H235.816V328.378H233.814ZM238.633 328.574C238.857 328.135 239.175 327.795 239.585 327.552C240.005 327.309 240.514 327.188 241.111 327.188V328.504H240.775C239.347 328.504 238.633 329.279 238.633 330.828V335H237.359V327.328H238.633V328.574ZM242.106 331.136C242.106 330.352 242.265 329.666 242.582 329.078C242.899 328.481 243.333 328.019 243.884 327.692C244.444 327.365 245.065 327.202 245.746 327.202C246.418 327.202 247.001 327.347 247.496 327.636C247.991 327.925 248.359 328.289 248.602 328.728V327.328H249.89V335H248.602V333.572C248.35 334.02 247.972 334.393 247.468 334.692C246.973 334.981 246.395 335.126 245.732 335.126C245.051 335.126 244.435 334.958 243.884 334.622C243.333 334.286 242.899 333.815 242.582 333.208C242.265 332.601 242.106 331.911 242.106 331.136ZM248.602 331.15C248.602 330.571 248.485 330.067 248.252 329.638C248.019 329.209 247.701 328.882 247.3 328.658C246.908 328.425 246.474 328.308 245.998 328.308C245.522 328.308 245.088 328.42 244.696 328.644C244.304 328.868 243.991 329.195 243.758 329.624C243.525 330.053 243.408 330.557 243.408 331.136C243.408 331.724 243.525 332.237 243.758 332.676C243.991 333.105 244.304 333.437 244.696 333.67C245.088 333.894 245.522 334.006 245.998 334.006C246.474 334.006 246.908 333.894 247.3 333.67C247.701 333.437 248.019 333.105 248.252 332.676C248.485 332.237 248.602 331.729 248.602 331.15ZM251.567 331.15C251.567 330.357 251.726 329.666 252.043 329.078C252.36 328.481 252.799 328.019 253.359 327.692C253.928 327.365 254.577 327.202 255.305 327.202C256.248 327.202 257.022 327.431 257.629 327.888C258.245 328.345 258.651 328.98 258.847 329.792H257.475C257.344 329.325 257.088 328.957 256.705 328.686C256.332 328.415 255.865 328.28 255.305 328.28C254.577 328.28 253.989 328.532 253.541 329.036C253.093 329.531 252.869 330.235 252.869 331.15C252.869 332.074 253.093 332.788 253.541 333.292C253.989 333.796 254.577 334.048 255.305 334.048C255.865 334.048 256.332 333.917 256.705 333.656C257.078 333.395 257.335 333.021 257.475 332.536H258.847C258.642 333.32 258.231 333.95 257.615 334.426C256.999 334.893 256.229 335.126 255.305 335.126C254.577 335.126 253.928 334.963 253.359 334.636C252.799 334.309 252.36 333.847 252.043 333.25C251.726 332.653 251.567 331.953 251.567 331.15ZM264.831 335L261.821 331.612V335H260.547V324.64H261.821V330.73L264.775 327.328H266.553L262.941 331.15L266.567 335H264.831ZM280.71 327.188C281.308 327.188 281.84 327.314 282.306 327.566C282.773 327.809 283.142 328.177 283.412 328.672C283.683 329.167 283.818 329.769 283.818 330.478V335H282.558V330.66C282.558 329.895 282.367 329.311 281.984 328.91C281.611 328.499 281.102 328.294 280.458 328.294C279.796 328.294 279.268 328.509 278.876 328.938C278.484 329.358 278.288 329.969 278.288 330.772V335H277.028V330.66C277.028 329.895 276.837 329.311 276.454 328.91C276.081 328.499 275.572 328.294 274.928 328.294C274.266 328.294 273.738 328.509 273.346 328.938C272.954 329.358 272.758 329.969 272.758 330.772V335H271.484V327.328H272.758V328.434C273.01 328.033 273.346 327.725 273.766 327.51C274.196 327.295 274.667 327.188 275.18 327.188C275.824 327.188 276.394 327.333 276.888 327.622C277.383 327.911 277.752 328.336 277.994 328.896C278.209 328.355 278.564 327.935 279.058 327.636C279.553 327.337 280.104 327.188 280.71 327.188ZM292.516 327.328L287.896 338.612H286.58L288.092 334.916L284.998 327.328H286.412L288.82 333.544L291.2 327.328H292.516ZM300.245 335.126C299.657 335.126 299.13 335.028 298.663 334.832C298.197 334.627 297.828 334.347 297.557 333.992C297.287 333.628 297.137 333.213 297.109 332.746H298.425C298.463 333.129 298.64 333.441 298.957 333.684C299.284 333.927 299.709 334.048 300.231 334.048C300.717 334.048 301.099 333.941 301.379 333.726C301.659 333.511 301.799 333.241 301.799 332.914C301.799 332.578 301.65 332.331 301.351 332.172C301.053 332.004 300.591 331.841 299.965 331.682C299.396 331.533 298.929 331.383 298.565 331.234C298.211 331.075 297.903 330.847 297.641 330.548C297.389 330.24 297.263 329.839 297.263 329.344C297.263 328.952 297.38 328.593 297.613 328.266C297.847 327.939 298.178 327.683 298.607 327.496C299.037 327.3 299.527 327.202 300.077 327.202C300.927 327.202 301.613 327.417 302.135 327.846C302.658 328.275 302.938 328.863 302.975 329.61H301.701C301.673 329.209 301.51 328.887 301.211 328.644C300.922 328.401 300.53 328.28 300.035 328.28C299.578 328.28 299.214 328.378 298.943 328.574C298.673 328.77 298.537 329.027 298.537 329.344C298.537 329.596 298.617 329.806 298.775 329.974C298.943 330.133 299.149 330.263 299.391 330.366C299.643 330.459 299.989 330.567 300.427 330.688C300.978 330.837 301.426 330.987 301.771 331.136C302.117 331.276 302.411 331.491 302.653 331.78C302.905 332.069 303.036 332.447 303.045 332.914C303.045 333.334 302.929 333.712 302.695 334.048C302.462 334.384 302.131 334.65 301.701 334.846C301.281 335.033 300.796 335.126 300.245 335.126ZM306.118 328.742C306.37 328.303 306.743 327.939 307.238 327.65C307.742 327.351 308.325 327.202 308.988 327.202C309.669 327.202 310.285 327.365 310.836 327.692C311.396 328.019 311.834 328.481 312.152 329.078C312.469 329.666 312.628 330.352 312.628 331.136C312.628 331.911 312.469 332.601 312.152 333.208C311.834 333.815 311.396 334.286 310.836 334.622C310.285 334.958 309.669 335.126 308.988 335.126C308.334 335.126 307.756 334.981 307.252 334.692C306.757 334.393 306.379 334.025 306.118 333.586V338.64H304.844V327.328H306.118V328.742ZM311.326 331.136C311.326 330.557 311.209 330.053 310.976 329.624C310.742 329.195 310.425 328.868 310.024 328.644C309.632 328.42 309.198 328.308 308.722 328.308C308.255 328.308 307.821 328.425 307.42 328.658C307.028 328.882 306.71 329.213 306.468 329.652C306.234 330.081 306.118 330.581 306.118 331.15C306.118 331.729 306.234 332.237 306.468 332.676C306.71 333.105 307.028 333.437 307.42 333.67C307.821 333.894 308.255 334.006 308.722 334.006C309.198 334.006 309.632 333.894 310.024 333.67C310.425 333.437 310.742 333.105 310.976 332.676C311.209 332.237 311.326 331.724 311.326 331.136ZM317.651 335.126C316.932 335.126 316.279 334.963 315.691 334.636C315.112 334.309 314.655 333.847 314.319 333.25C313.992 332.643 313.829 331.943 313.829 331.15C313.829 330.366 313.997 329.675 314.333 329.078C314.678 328.471 315.145 328.009 315.733 327.692C316.321 327.365 316.979 327.202 317.707 327.202C318.435 327.202 319.093 327.365 319.681 327.692C320.269 328.009 320.731 328.467 321.067 329.064C321.412 329.661 321.585 330.357 321.585 331.15C321.585 331.943 321.407 332.643 321.053 333.25C320.707 333.847 320.236 334.309 319.639 334.636C319.041 334.963 318.379 335.126 317.651 335.126ZM317.651 334.006C318.108 334.006 318.537 333.899 318.939 333.684C319.34 333.469 319.662 333.147 319.905 332.718C320.157 332.289 320.283 331.766 320.283 331.15C320.283 330.534 320.161 330.011 319.919 329.582C319.676 329.153 319.359 328.835 318.967 328.63C318.575 328.415 318.15 328.308 317.693 328.308C317.226 328.308 316.797 328.415 316.405 328.63C316.022 328.835 315.714 329.153 315.481 329.582C315.247 330.011 315.131 330.534 315.131 331.15C315.131 331.775 315.243 332.303 315.467 332.732C315.7 333.161 316.008 333.483 316.391 333.698C316.773 333.903 317.193 334.006 317.651 334.006ZM324.534 328.574C324.758 328.135 325.075 327.795 325.486 327.552C325.906 327.309 326.414 327.188 327.012 327.188V328.504H326.676C325.248 328.504 324.534 329.279 324.534 330.828V335H323.26V327.328H324.534V328.574ZM330.036 328.378V332.9C330.036 333.273 330.116 333.539 330.274 333.698C330.433 333.847 330.708 333.922 331.1 333.922H332.038V335H330.89C330.181 335 329.649 334.837 329.294 334.51C328.94 334.183 328.762 333.647 328.762 332.9V328.378H327.768V327.328H328.762V325.396H330.036V327.328H332.038V328.378H330.036ZM336.298 335.126C335.71 335.126 335.183 335.028 334.716 334.832C334.249 334.627 333.881 334.347 333.61 333.992C333.339 333.628 333.19 333.213 333.162 332.746H334.478C334.515 333.129 334.693 333.441 335.01 333.684C335.337 333.927 335.761 334.048 336.284 334.048C336.769 334.048 337.152 333.941 337.432 333.726C337.712 333.511 337.852 333.241 337.852 332.914C337.852 332.578 337.703 332.331 337.404 332.172C337.105 332.004 336.643 331.841 336.018 331.682C335.449 331.533 334.982 331.383 334.618 331.234C334.263 331.075 333.955 330.847 333.694 330.548C333.442 330.24 333.316 329.839 333.316 329.344C333.316 328.952 333.433 328.593 333.666 328.266C333.899 327.939 334.231 327.683 334.66 327.496C335.089 327.3 335.579 327.202 336.13 327.202C336.979 327.202 337.665 327.417 338.188 327.846C338.711 328.275 338.991 328.863 339.028 329.61H337.754C337.726 329.209 337.563 328.887 337.264 328.644C336.975 328.401 336.583 328.28 336.088 328.28C335.631 328.28 335.267 328.378 334.996 328.574C334.725 328.77 334.59 329.027 334.59 329.344C334.59 329.596 334.669 329.806 334.828 329.974C334.996 330.133 335.201 330.263 335.444 330.366C335.696 330.459 336.041 330.567 336.48 330.688C337.031 330.837 337.479 330.987 337.824 331.136C338.169 331.276 338.463 331.491 338.706 331.78C338.958 332.069 339.089 332.447 339.098 332.914C339.098 333.334 338.981 333.712 338.748 334.048C338.515 334.384 338.183 334.65 337.754 334.846C337.334 335.033 336.849 335.126 336.298 335.126Z" fill="white" />
<defs>
<clipPath id="clip0_37121_152546">
<rect width="11.6667" height="11.6667" fill="white" transform="translate(76.3359 403.25)" />
</clipPath>
<clipPath id="clip1_37121_152546">
<rect width="11.6667" height="11.6667" fill="white" transform="translate(68.3359 633.25)" />
</clipPath>
</defs>
</svg>